<?xml version="1.0" encoding="UTF-8"?>
<svg width="52px" height="20px" viewBox="0 0 52 20" version="1.1" xmlns="http://www.w3.org/2000/svg" xmlns:xlink="http://www.w3.org/1999/xlink">
    <title>画板</title>
    <g id="画板" stroke="none" stroke-width="1" fill="none" fill-rule="evenodd">
        <g id="Icnon" transform="translate(2.170833, 3.177083)" fill="#FFFFFF" fill-rule="nonzero">
            <path d="M0.266666667,1.26041667 C-0.0666666667,0.34375 0.230208333,-0.0729166667 1.15729167,0.0104166667 C2.91770833,0.364583333 3.76666667,1.24479167 3.70416667,2.65104167 C3.6625,4.40104167 3.646875,6.57291667 3.65729167,9.16666667 C3.771875,10.3958333 3.78229167,11.2760417 3.68854167,11.8072917 C3.60520833,12.1822917 3.396875,12.4791667 3.06354167,12.6979167 C2.73020833,12.8958333 2.33958333,12.9739583 1.89166667,12.9322917 C1.35,12.8697917 0.938541667,12.6614583 0.657291667,12.3072917 C0.417708333,11.953125 0.240625,11.5364583 0.126041667,11.0572917 C-0.103125,9.88020833 -0.0197916667,8.03645833 0.376041667,5.52604167 C0.584375,3.93229167 0.646875,2.71875 0.563541667,1.88541667 C0.542708333,1.71875 0.44375,1.51041667 0.266666667,1.26041667 Z" id="I"></path>
            <path d="M9.45416667,3.30729167 C10.225,3.18229167 10.8916667,3.20833333 11.4541667,3.38541667 C11.69375,3.45833333 11.9020833,3.43229167 12.0791667,3.30729167 C12.50625,3.140625 12.9541667,3.27083333 13.4229167,3.69791667 C14.1520833,4.33333333 14.5739583,4.953125 14.6885417,5.55729167 C14.7197917,6.22395833 14.396875,6.61979167 13.7197917,6.74479167 C13.490625,6.75520833 13.178125,6.59895833 12.7822917,6.27604167 C12.146875,5.66145833 11.4125,5.36458333 10.5791667,5.38541667 C10.13125,5.41666667 9.75104167,5.69791667 9.43854167,6.22916667 C9.09479167,6.9375 8.98020833,7.734375 9.09479167,8.61979167 C9.146875,9.11979167 9.26666667,9.53645833 9.45416667,9.86979167 C9.71458333,10.359375 10.0791667,10.625 10.5479167,10.6666667 C11.3708333,10.75 11.8864583,10.3385417 12.0947917,9.43229167 C12.1572917,8.43229167 12.6989583,8.140625 13.7197917,8.55729167 C14.178125,8.703125 14.5166667,9.04166667 14.7354167,9.57291667 C14.9645833,10.3854167 14.56875,11.203125 13.5479167,12.0260417 C12.19375,12.9322917 10.7979167,13.1979167 9.36041667,12.8229167 C8.00625,12.5104167 6.98541667,11.5520833 6.29791667,9.94791667 C5.98541667,9.13541667 5.88125,8.26041667 5.98541667,7.32291667 C6.05833333,6.84375 6.15208333,6.42708333 6.26666667,6.07291667 C6.93333333,4.5625 7.99583333,3.640625 9.45416667,3.30729167 Z" id="c"></path>
            <path d="M16.9854167,4.19791667 C16.6625,3.375 16.990625,3.05208333 17.9697917,3.22916667 C18.303125,3.29166667 18.7197917,3.47916667 19.2197917,3.79166667 C19.5010417,4.05208333 19.7666667,4.109375 20.0166667,3.96354167 C20.6833333,3.55729167 21.459375,3.31770833 22.3447917,3.24479167 C23.365625,3.24479167 24.1989583,3.5625 24.8447917,4.19791667 C25.4697917,4.89583333 25.7458333,5.86458333 25.6729167,7.10416667 C25.63125,9.04166667 25.6520833,10.5416667 25.7354167,11.6041667 C25.6833333,12.28125 25.38125,12.734375 24.8291667,12.9635417 C23.6104167,13.1197917 22.8552083,12.609375 22.5635417,11.4322917 C22.4697917,10.484375 22.50625,9.0625 22.6729167,7.16666667 L22.6729167,5.96354167 C22.6208333,5.171875 22.2614583,4.90625 21.5947917,5.16666667 C21.0947917,5.39583333 20.7197917,5.72916667 20.4697917,6.16666667 C20.3239583,6.32291667 20.1833333,6.43229167 20.0479167,6.49479167 C19.9229167,6.53645833 19.85,6.68229167 19.8291667,6.93229167 C19.7875,8.31770833 19.8135417,9.85416667 19.9072917,11.5416667 C19.8864583,12.2291667 19.6,12.6927083 19.0479167,12.9322917 C18.3083333,13.1302083 17.7197917,12.890625 17.2822917,12.2135417 C16.9697917,11.1197917 16.9072917,9.19791667 17.0947917,6.44791667 C17.1989583,5.36458333 17.1625,4.61458333 16.9854167,4.19791667 Z" id="n"></path>
            <path d="M33.7354167,3.30729167 C34.225,2.96354167 34.740625,3.04166667 35.2822917,3.54166667 C35.9177083,4.05208333 36.2041667,4.60416667 36.1416667,5.19791667 C36.0479167,5.42708333 36.1208333,5.63541667 36.3604167,5.82291667 C37.06875,6.69791667 37.365625,7.640625 37.2510417,8.65104167 C37.1364583,10.1510417 36.4177083,11.3385417 35.0947917,12.2135417 C33.8135417,12.9427083 32.475,13.1302083 31.0791667,12.7760417 C30.13125,12.5572917 29.334375,12.0052083 28.6885417,11.1197917 C27.6989583,9.47395833 27.5479167,7.703125 28.2354167,5.80729167 C28.81875,4.578125 29.7197917,3.78645833 30.9385417,3.43229167 C31.5947917,3.22395833 32.31875,3.203125 33.1104167,3.36979167 C33.38125,3.49479167 33.5895833,3.47395833 33.7354167,3.30729167 Z M32.7041667,5.24479167 C31.81875,5.171875 31.1416667,5.64583333 30.6729167,6.66666667 C30.3291667,7.36458333 30.31875,8.25 30.6416667,9.32291667 C30.7770833,9.75 31.1208333,10.0989583 31.6729167,10.3697917 C32.5791667,10.703125 33.4020833,10.4375 34.1416667,9.57291667 C34.5479167,9.08333333 34.7875,8.46875 34.8604167,7.72916667 C34.7875,7.26041667 34.88125,6.921875 35.1416667,6.71354167 C35.2875,6.61979167 35.1885417,6.52083333 34.8447917,6.41666667 C34.490625,6.17708333 34.1364583,5.91666667 33.7822917,5.63541667 C33.5010417,5.45833333 33.1416667,5.328125 32.7041667,5.24479167 Z" id="o"></path>
            <path d="M38.9229167,4.19791667 C38.6,3.375 38.928125,3.05208333 39.9072917,3.22916667 C40.240625,3.29166667 40.6572917,3.47916667 41.1572917,3.79166667 C41.4385417,4.05208333 41.7041667,4.109375 41.9541667,3.96354167 C42.6208333,3.55729167 43.396875,3.31770833 44.2822917,3.24479167 C45.303125,3.24479167 46.1364583,3.5625 46.7822917,4.19791667 C47.4072917,4.89583333 47.6833333,5.86458333 47.6104167,7.10416667 C47.56875,9.04166667 47.5895833,10.5416667 47.6729167,11.6041667 C47.6208333,12.28125 47.31875,12.734375 46.7666667,12.9635417 C45.5479167,13.1197917 44.7927083,12.609375 44.5010417,11.4322917 C44.4072917,10.484375 44.44375,9.0625 44.6104167,7.16666667 L44.6104167,5.96354167 C44.5583333,5.171875 44.1989583,4.90625 43.5322917,5.16666667 C43.0322917,5.39583333 42.6572917,5.72916667 42.4072917,6.16666667 C42.2614583,6.32291667 42.1208333,6.43229167 41.9854167,6.49479167 C41.8604167,6.53645833 41.7875,6.68229167 41.7666667,6.93229167 C41.725,8.31770833 41.7510417,9.85416667 41.8447917,11.5416667 C41.8239583,12.2291667 41.5375,12.6927083 40.9854167,12.9322917 C40.2458333,13.1302083 39.6572917,12.890625 39.2197917,12.2135417 C38.9072917,11.1197917 38.8447917,9.19791667 39.0322917,6.44791667 C39.1364583,5.36458333 39.1,4.61458333 38.9229167,4.19791667 Z" id="n"></path>
        </g>
    </g>
</svg>