<?xml version="1.0" encoding="UTF-8"?>
<svg width="52px" height="20px" viewBox="0 0 52 20" version="1.1" xmlns="http://www.w3.org/2000/svg" xmlns:xlink="http://www.w3.org/1999/xlink">
    <title>画板</title>
    <g id="画板" stroke="none" stroke-width="1" fill="none" fill-rule="evenodd">
        <g id="Y" transform="translate(2.507000, 5.042000)" fill="#FFFFFF" fill-rule="nonzero">
            <path d="M9.009,0 L9.009,0 L7.254,0 C6.75133333,0 6.344,0.234 6.032,0.702 L3.848,4.342 L2.717,0.975 C2.431,0.325 1.98033333,0 1.365,0 L0,0 L2.379,6.526 L1.716,11.245 L4.108,11.245 L4.771,6.526 L9.009,0 Z"></path>
        </g>
        <g id="chen" transform="translate(11.494000, 4.067000)" fill="#FFFFFF" fill-rule="nonzero">
            <path d="M7.956,3.679 L7.956,3.679 C7.124,3.46233333 6.344,3.354 5.616,3.354 C3.96066667,3.354 2.60866667,3.81333333 1.56,4.732 C0.52,5.65066667 0,6.82933333 0,8.268 C0,9.438 0.385666667,10.387 1.157,11.115 C1.92833333,11.843 2.94233333,12.207 4.199,12.207 C5.19566667,12.207 6.20533333,11.9816667 7.228,11.531 L7.228,11.518 C7.26266667,11.1106667 7.137,10.79 6.851,10.556 C6.565,10.322 6.227,10.257 5.837,10.361 C5.317,10.5256667 4.823,10.608 4.355,10.608 C3.601,10.608 3.003,10.4 2.561,9.984 C2.119,9.568 1.898,9.009 1.898,8.307 C1.898,7.40566667 2.21866667,6.62133333 2.86,5.954 C3.50133333,5.28666667 4.407,4.953 5.577,4.953 C5.915,4.953 6.253,4.979 6.591,5.031 C6.903,5.06566667 7.17816667,4.9985 7.4165,4.8295 C7.65483333,4.6605 7.80866667,4.42433333 7.878,4.121 L7.956,3.679 Z" id="c"></path>
            <path d="M11.9578987,6.682 L11.9578987,6.682 L11.1778987,12.246 L8.95489873,12.246 L10.4238987,1.495 C10.6925654,0.498333333 11.2168987,0 11.9968987,0 L12.8548987,0 L12.2308987,4.667 C12.6728987,4.28566667 13.1018987,4.004 13.5178987,3.822 C13.9425654,3.64 14.3672321,3.549 14.7918987,3.549 C15.3292321,3.549 15.7712321,3.63566667 16.1178987,3.809 C16.4558987,3.98233333 16.7158987,4.22066667 16.8978987,4.524 C17.0798987,4.836 17.1925654,5.19566667 17.2358987,5.603 C17.2792321,6.01033333 17.2618987,6.50433333 17.1838987,7.085 L16.4688987,12.207 L15.9098987,12.207 C15.4678987,12.207 15.1082321,12.0445 14.8308987,11.7195 C14.5535654,11.3945 14.4365654,11.011 14.4798987,10.569 L14.9218987,7.423 C14.9738987,7.04166667 14.9868987,6.74266667 14.9608987,6.526 C14.9348987,6.30066667 14.8828987,6.11433333 14.8048987,5.967 C14.7182321,5.811 14.5968987,5.68966667 14.4408987,5.603 C14.2848987,5.51633333 14.0942321,5.473 13.8688987,5.473 C13.5915654,5.473 13.2925654,5.577 12.9718987,5.785 C12.6598987,5.98433333 12.3218987,6.28333333 11.9578987,6.682 Z" id="h"></path>
            <path d="M24.2797975,10.452 L24.2797975,10.452 C24.3577975,10.4433333 24.4661308,10.4173333 24.6047975,10.374 C24.8734641,10.3133333 25.1226308,10.3393333 25.3522975,10.452 C25.5819641,10.5646667 25.7531308,10.7466667 25.8657975,10.998 L26.0867975,11.492 C26.0261308,11.5266667 25.9394641,11.57 25.8267975,11.622 C25.8181308,11.622 25.8094641,11.622 25.8007975,11.622 C25.6881308,11.6653333 25.5364641,11.7238333 25.3457975,11.7975 C25.1551308,11.8711667 24.9861308,11.9253333 24.8387975,11.96 C24.5701308,12.0293333 24.2581308,12.09 23.9027975,12.142 C23.5561308,12.194 23.1921308,12.22 22.8107975,12.22 C22.1087975,12.22 21.5064641,12.129 21.0037975,11.947 C20.5011308,11.7736667 20.0981308,11.5093333 19.7947975,11.154 C19.4914641,10.79 19.2921308,10.335 19.1967975,9.789 C19.1014641,9.243 19.1057975,8.60166667 19.2097975,7.865 C19.3051308,7.17166667 19.4871308,6.54333333 19.7557975,5.98 C20.0157975,5.41666667 20.3451308,4.94 20.7437975,4.55 C21.1424641,4.16 21.6061308,3.861 22.1347975,3.653 C22.6634641,3.45366667 23.2397975,3.354 23.8637975,3.354 C24.5137975,3.354 25.0597975,3.44933333 25.5017975,3.64 C25.9437975,3.83066667 26.2904641,4.09933333 26.5417975,4.446 C26.7931308,4.79266667 26.9577975,5.2 27.0357975,5.668 C27.1051308,6.136 27.1007975,6.64733333 27.0227975,7.202 L26.9837975,7.553 C26.9404641,7.82166667 26.8494641,8.021 26.7107975,8.151 C26.5721308,8.281 26.3987975,8.346 26.1907975,8.346 L21.4067975,8.346 C21.3547975,8.684 21.3504641,8.98733333 21.3937975,9.256 C21.4371308,9.53333333 21.5281308,9.76733333 21.6667975,9.958 C21.8141308,10.1486667 22.0177975,10.2916667 22.2777975,10.387 C22.5377975,10.491 22.8584641,10.543 23.2397975,10.543 C23.6297975,10.543 23.9764641,10.5126667 24.2797975,10.452 Z M21.8357975,6.136 L21.8357975,6.136 C21.7317975,6.37866667 21.6537975,6.63866667 21.6017975,6.916 L24.9167975,6.916 C25.0207975,6.292 24.9644641,5.80233333 24.7477975,5.447 C24.5311308,5.09166667 24.1411308,4.914 23.5777975,4.914 C23.3004641,4.914 23.0491308,4.966 22.8237975,5.07 C22.5984641,5.18266667 22.4077975,5.32566667 22.2517975,5.499 C22.0871308,5.681 21.9484641,5.89333333 21.8357975,6.136 Z" id="e"></path>
            <path d="M31.6226962,6.487 L31.6226962,6.487 L30.9596962,11.258 C30.9076962,11.544 30.7776962,11.778 30.5696962,11.96 C30.3616962,12.142 30.1146962,12.233 29.8286962,12.233 L28.5676962,12.233 L29.6466962,4.485 C29.6986962,4.147 29.8481962,3.87183333 30.0951962,3.6595 C30.3421962,3.44716667 30.6303628,3.341 30.9596962,3.341 L31.7266962,3.341 L31.5446962,4.732 C32.0473628,4.25533333 32.5456962,3.89566667 33.0396962,3.653 C33.5250295,3.419 34.0146962,3.302 34.5086962,3.302 C35.0546962,3.302 35.5010295,3.38866667 35.8476962,3.562 C36.1943628,3.744 36.4586962,3.98666667 36.6406962,4.29 C36.8313628,4.602 36.9483628,4.96166667 36.9916962,5.369 C37.0350295,5.785 37.0176962,6.279 36.9396962,6.851 L36.3286962,12.233 L34.0796962,12.233 L34.6386962,7.228 C34.6906962,6.84666667 34.7036962,6.54333333 34.6776962,6.318 C34.6516962,6.10133333 34.5953628,5.915 34.5086962,5.759 C34.4306962,5.59433333 34.3093628,5.46866667 34.1446962,5.382 C33.9886962,5.29533333 33.7980295,5.252 33.5726962,5.252 C33.2866962,5.252 32.9833628,5.356 32.6626962,5.564 C32.3420295,5.78066667 31.9953628,6.08833333 31.6226962,6.487 Z" id="n"></path>
        </g>
    </g>
</svg>